<mxfile host="app.diagrams.net" modified="2024-04-18T21:45:44.322Z" agent="Mozilla/5.0 (Windows NT 10.0; Win64; x64) AppleWebKit/537.36 (KHTML, like Gecko) Chrome/123.0.0.0 Safari/537.36" etag="WKSZ531S8KRSSrFGrPVJ" version="23.1.2" type="google">
  <diagram name="Page-1" id="_Ht9gOuzyUZ0okVe30qT">
    <mxGraphModel grid="0" page="1" gridSize="10" guides="1" tooltips="1" connect="1" arrows="1" fold="1" pageScale="1" pageWidth="850" pageHeight="1100" math="0" shadow="0">
      <root>
        <mxCell id="0" />
        <mxCell id="1" parent="0" />
        <mxCell id="TeC2zb-W1rzmLHfq34ra-6" value="&lt;b&gt;&lt;font color=&quot;#5e4e4e&quot;&gt;ValidationManagerConfig&lt;/font&gt;&lt;/b&gt;&lt;font face=&quot;Lucida Console&quot;&gt;&lt;br&gt;&lt;/font&gt;" style="whiteSpace=wrap;html=1;rounded=1;comic=0;labelBackgroundColor=none;strokeWidth=1;fontFamily=Verdana;fontSize=12;align=center;fillColor=#e1d5e7;strokeColor=#9673a6;" vertex="1" parent="1">
          <mxGeometry x="510" y="110" width="200.25" height="63" as="geometry" />
        </mxCell>
        <mxCell id="TeC2zb-W1rzmLHfq34ra-49" style="edgeStyle=orthogonalEdgeStyle;rounded=0;orthogonalLoop=1;jettySize=auto;html=1;exitX=1;exitY=0.5;exitDx=0;exitDy=0;entryX=0;entryY=0.25;entryDx=0;entryDy=0;strokeColor=#CC0000;" edge="1" parent="1" source="TeC2zb-W1rzmLHfq34ra-9" target="TeC2zb-W1rzmLHfq34ra-6">
          <mxGeometry relative="1" as="geometry" />
        </mxCell>
        <mxCell id="TeC2zb-W1rzmLHfq34ra-9" value="&lt;b style=&quot;color: rgb(94, 78, 78);&quot;&gt;ValidationServices&lt;/b&gt;&lt;br&gt;factories&lt;br&gt;services" style="whiteSpace=wrap;html=1;rounded=1;shadow=0;comic=0;labelBackgroundColor=none;strokeWidth=1;fontFamily=Verdana;fontSize=12;align=center;fillColor=#f8cecc;strokeColor=#b85450;" vertex="1" parent="1">
          <mxGeometry x="161.5" y="107" width="153" height="62" as="geometry" />
        </mxCell>
        <mxCell id="TeC2zb-W1rzmLHfq34ra-50" style="edgeStyle=orthogonalEdgeStyle;rounded=0;orthogonalLoop=1;jettySize=auto;html=1;exitX=0.75;exitY=0;exitDx=0;exitDy=0;entryX=0;entryY=0.5;entryDx=0;entryDy=0;strokeColor=#006600;" edge="1" parent="1" source="TeC2zb-W1rzmLHfq34ra-12" target="TeC2zb-W1rzmLHfq34ra-6">
          <mxGeometry relative="1" as="geometry">
            <Array as="points">
              <mxPoint x="330" y="162" />
              <mxPoint x="442" y="162" />
              <mxPoint x="442" y="142" />
            </Array>
          </mxGeometry>
        </mxCell>
        <mxCell id="TeC2zb-W1rzmLHfq34ra-12" value="&lt;font color=&quot;#5e4e4e&quot;&gt;InputValueHostConfig with 2 validators&lt;/font&gt;" style="swimlane;whiteSpace=wrap;html=1;strokeColor=#97D077;fontColor=#006600;collapsible=0;opacity=70;" vertex="1" parent="1">
          <mxGeometry x="59.75" y="200" width="360.25" height="575" as="geometry" />
        </mxCell>
        <mxCell id="TeC2zb-W1rzmLHfq34ra-44" value="InputValidatorConfig" style="swimlane;horizontal=0;whiteSpace=wrap;html=1;rotation=90;strokeColor=#CCCCFF;fontColor=#5E4E4E;collapsible=0;container=0;" vertex="1" parent="TeC2zb-W1rzmLHfq34ra-12">
          <mxGeometry x="74.72999999999993" y="295.27" width="206.09" height="340.63" as="geometry" />
        </mxCell>
        <mxCell id="TeC2zb-W1rzmLHfq34ra-45" value="&lt;font face=&quot;Verdana&quot;&gt;conditionConfig: ... &lt;i&gt;below &lt;/i&gt;...&lt;br&gt;errorMessage: &quot;...the error message...&quot;&lt;br&gt;severity: ValidationSeverity.Error&lt;/font&gt;" style="whiteSpace=wrap;html=1;rounded=1;shadow=0;comic=0;labelBackgroundColor=none;strokeWidth=1;fontFamily=Verdana;fontSize=12;align=left;rotation=0;fillColor=#dae8fc;strokeColor=#6c8ebf;container=0;spacing=4;" vertex="1" parent="TeC2zb-W1rzmLHfq34ra-12">
          <mxGeometry x="21.589999999999932" y="394.03999999999996" width="308.62" height="48.5" as="geometry" />
        </mxCell>
        <mxCell id="TeC2zb-W1rzmLHfq34ra-46" value="ConditionConfig" style="swimlane;horizontal=0;whiteSpace=wrap;html=1;rotation=90;strokeColor=#CCCCFF;collapsible=0;fontColor=#5E4E4E;container=0;" vertex="1" parent="TeC2zb-W1rzmLHfq34ra-12">
          <mxGeometry x="125.04000000000002" y="352.04999999999995" width="101.65" height="316.63" as="geometry" />
        </mxCell>
        <mxCell id="TeC2zb-W1rzmLHfq34ra-47" style="rounded=0;orthogonalLoop=1;jettySize=auto;html=1;exitX=0.5;exitY=1;exitDx=0;exitDy=0;strokeColor=#007A7A;entryX=0;entryY=0.5;entryDx=0;entryDy=0;" edge="1" parent="TeC2zb-W1rzmLHfq34ra-12" source="TeC2zb-W1rzmLHfq34ra-45" target="TeC2zb-W1rzmLHfq34ra-46">
          <mxGeometry relative="1" as="geometry">
            <mxPoint x="83.46000000000001" y="493.53999999999996" as="targetPoint" />
          </mxGeometry>
        </mxCell>
        <mxCell id="TeC2zb-W1rzmLHfq34ra-48" value="type: &quot;LessThanOrEqual&quot;&lt;br&gt;valueHostName: &quot;DiffInDays&quot;&lt;br&gt;secondValue: 10" style="whiteSpace=wrap;html=1;rotation=0;fillColor=#fad7ac;strokeColor=#b46504;rounded=1;container=0;spacing=4;align=left;fontFamily=Verdana;" vertex="1" parent="TeC2zb-W1rzmLHfq34ra-12">
          <mxGeometry x="24.83999999999999" y="489.41999999999996" width="297.37" height="62.5" as="geometry" />
        </mxCell>
        <mxCell id="TeC2zb-W1rzmLHfq34ra-13" style="edgeStyle=orthogonalEdgeStyle;rounded=0;orthogonalLoop=1;jettySize=auto;html=1;exitX=0.5;exitY=1;exitDx=0;exitDy=0;entryX=0;entryY=0.5;entryDx=0;entryDy=0;strokeColor=#00994D;" edge="1" parent="1" source="TeC2zb-W1rzmLHfq34ra-15" target="TeC2zb-W1rzmLHfq34ra-21">
          <mxGeometry relative="1" as="geometry" />
        </mxCell>
        <mxCell id="TeC2zb-W1rzmLHfq34ra-15" value="&lt;font face=&quot;Verdana&quot;&gt;type: &quot;Input&quot;&lt;br&gt;name: &quot;&lt;font style=&quot;&quot; color=&quot;#cc00cc&quot;&gt;StartDate&lt;/font&gt;&quot;&lt;br&gt;dataType: &quot;Date&quot;&lt;br&gt;label: &quot;Start date&quot;&lt;br&gt;validatorConfigs: [ ... &lt;i&gt;below &lt;/i&gt;... ]&lt;br&gt;&lt;/font&gt;" style="rounded=1;whiteSpace=wrap;html=1;shadow=0;comic=0;labelBackgroundColor=none;strokeWidth=1;fontFamily=Verdana;fontSize=12;align=left;fillColor=#cdeb8b;strokeColor=#006600;spacing=4;" vertex="1" parent="1">
          <mxGeometry x="113" y="230" width="241" height="90" as="geometry" />
        </mxCell>
        <mxCell id="TeC2zb-W1rzmLHfq34ra-51" style="edgeStyle=orthogonalEdgeStyle;rounded=0;orthogonalLoop=1;jettySize=auto;html=1;exitX=0.5;exitY=0;exitDx=0;exitDy=0;entryX=0.25;entryY=1;entryDx=0;entryDy=0;strokeColor=#006600;" edge="1" parent="1" source="TeC2zb-W1rzmLHfq34ra-17" target="TeC2zb-W1rzmLHfq34ra-6">
          <mxGeometry relative="1" as="geometry">
            <Array as="points">
              <mxPoint x="535" y="188" />
              <mxPoint x="560" y="188" />
            </Array>
          </mxGeometry>
        </mxCell>
        <mxCell id="TeC2zb-W1rzmLHfq34ra-17" value="&lt;font&gt;InputValueHostConfig&lt;/font&gt;" style="swimlane;whiteSpace=wrap;html=1;strokeColor=#97D077;collapsible=0;fontColor=#5E4E4E;fontFamily=Verdana;" vertex="1" parent="1">
          <mxGeometry x="440" y="200" width="190" height="130" as="geometry" />
        </mxCell>
        <mxCell id="TeC2zb-W1rzmLHfq34ra-11" value="&lt;font face=&quot;Verdana&quot;&gt;&lt;font style=&quot;font-size: 12px;&quot;&gt;&lt;font style=&quot;border-color: var(--border-color);&quot;&gt;type: &quot;Input&quot;&lt;br style=&quot;border-color: var(--border-color);&quot;&gt;name: &quot;&lt;font style=&quot;&quot; color=&quot;#cc00cc&quot;&gt;End&lt;font style=&quot;border-color: var(--border-color);&quot;&gt;Date&lt;/font&gt;&lt;/font&gt;&quot;&lt;br style=&quot;border-color: var(--border-color);&quot;&gt;dataType: &quot;Date&quot;&lt;br style=&quot;border-color: var(--border-color);&quot;&gt;&lt;/font&gt;label: &quot;End date&quot;&lt;br&gt;&lt;/font&gt;validatorConfigs: []&lt;/font&gt;" style="rounded=1;whiteSpace=wrap;html=1;shadow=0;comic=0;labelBackgroundColor=none;strokeWidth=1;fontFamily=Verdana;fontSize=12;align=left;fillColor=#cdeb8b;strokeColor=#006600;spacing=4;" vertex="1" parent="TeC2zb-W1rzmLHfq34ra-17">
          <mxGeometry x="8.5" y="30" width="171.5" height="91" as="geometry" />
        </mxCell>
        <mxCell id="TeC2zb-W1rzmLHfq34ra-52" style="edgeStyle=orthogonalEdgeStyle;rounded=0;orthogonalLoop=1;jettySize=auto;html=1;exitX=0.75;exitY=0;exitDx=0;exitDy=0;entryX=0.5;entryY=1;entryDx=0;entryDy=0;strokeColor=#006600;" edge="1" parent="1" source="TeC2zb-W1rzmLHfq34ra-18" target="TeC2zb-W1rzmLHfq34ra-6">
          <mxGeometry relative="1" as="geometry">
            <Array as="points">
              <mxPoint x="663" y="213" />
              <mxPoint x="610" y="213" />
            </Array>
          </mxGeometry>
        </mxCell>
        <mxCell id="TeC2zb-W1rzmLHfq34ra-18" value="CalcValueHostConfig" style="swimlane;whiteSpace=wrap;html=1;startSize=23;strokeColor=#97D077;fontColor=#5E4E4E;collapsible=0;" vertex="1" parent="1">
          <mxGeometry x="520" y="341" width="190.25" height="108" as="geometry" />
        </mxCell>
        <mxCell id="TeC2zb-W1rzmLHfq34ra-10" value="&lt;font face=&quot;Verdana&quot;&gt;type: &quot;Calc&quot;&lt;br&gt;name: &quot;&lt;font color=&quot;#cc00cc&quot;&gt;DiffInDays&lt;/font&gt;&quot;&lt;br&gt;calcFn: &lt;i&gt;function callback&lt;/i&gt;&lt;/font&gt;&lt;font face=&quot;Lucida Console&quot;&gt;&lt;br&gt;&lt;/font&gt;" style="rounded=1;whiteSpace=wrap;html=1;shadow=0;comic=0;labelBackgroundColor=none;strokeWidth=1;fontFamily=Verdana;fontSize=12;align=left;fillColor=#cdeb8b;strokeColor=#006600;spacing=4;" vertex="1" parent="TeC2zb-W1rzmLHfq34ra-18">
          <mxGeometry x="8" y="30" width="172" height="70" as="geometry" />
        </mxCell>
        <mxCell id="TeC2zb-W1rzmLHfq34ra-53" style="edgeStyle=orthogonalEdgeStyle;rounded=0;orthogonalLoop=1;jettySize=auto;html=1;exitX=0.75;exitY=0;exitDx=0;exitDy=0;entryX=0.75;entryY=1;entryDx=0;entryDy=0;strokeColor=#006600;" edge="1" parent="1" source="TeC2zb-W1rzmLHfq34ra-19" target="TeC2zb-W1rzmLHfq34ra-6">
          <mxGeometry relative="1" as="geometry">
            <Array as="points">
              <mxPoint x="753" y="203" />
              <mxPoint x="660" y="203" />
            </Array>
          </mxGeometry>
        </mxCell>
        <mxCell id="TeC2zb-W1rzmLHfq34ra-19" value="NonInputValueHostConfig" style="swimlane;whiteSpace=wrap;html=1;strokeColor=#97D077;swimlaneLine=1;fontColor=#5E4E4E;collapsible=0;" vertex="1" parent="1">
          <mxGeometry x="610" y="464" width="190.25" height="109" as="geometry">
            <mxRectangle x="587" y="30" width="150" height="30" as="alternateBounds" />
          </mxGeometry>
        </mxCell>
        <mxCell id="TeC2zb-W1rzmLHfq34ra-20" value="&lt;font face=&quot;Verdana&quot;&gt;type: &quot;NonInput&quot;&lt;br&gt;name: &quot;&lt;font color=&quot;#cc00cc&quot;&gt;TimeZone&lt;/font&gt;&quot;&lt;br&gt;dataType: &quot;String&quot;&lt;/font&gt;" style="rounded=1;whiteSpace=wrap;html=1;shadow=0;comic=0;labelBackgroundColor=none;strokeWidth=1;fontFamily=Verdana;fontSize=12;align=left;fillColor=#cdeb8b;strokeColor=#006600;spacing=4;" vertex="1" parent="TeC2zb-W1rzmLHfq34ra-19">
          <mxGeometry x="10" y="30" width="170" height="70" as="geometry" />
        </mxCell>
        <mxCell id="TeC2zb-W1rzmLHfq34ra-21" value="InputValidatorConfig" style="swimlane;horizontal=0;whiteSpace=wrap;html=1;rotation=90;strokeColor=#CCCCFF;fontColor=#5E4E4E;collapsible=0;container=0;" vertex="1" parent="1">
          <mxGeometry x="134.51999999999992" y="278" width="206.09" height="340.63" as="geometry" />
        </mxCell>
        <mxCell id="TeC2zb-W1rzmLHfq34ra-26" value="conditionConfig: ... &lt;i&gt;below &lt;/i&gt;...&lt;br&gt;errorMessage: &quot;...the error message...&quot;&lt;br&gt;severity: ValidationSeverity.Error" style="whiteSpace=wrap;html=1;rounded=1;shadow=0;comic=0;labelBackgroundColor=none;strokeWidth=1;fontFamily=Verdana;fontSize=12;align=left;rotation=0;fillColor=#dae8fc;strokeColor=#6c8ebf;container=0;spacing=4;" vertex="1" parent="1">
          <mxGeometry x="81.37999999999994" y="376.77" width="308.62" height="48.5" as="geometry" />
        </mxCell>
        <mxCell id="TeC2zb-W1rzmLHfq34ra-27" value="ConditionConfig" style="swimlane;horizontal=0;whiteSpace=wrap;html=1;rotation=90;strokeColor=#CCCCFF;collapsible=0;fontColor=#5E4E4E;container=0;" vertex="1" parent="1">
          <mxGeometry x="184.83" y="334.78" width="101.65" height="316.63" as="geometry" />
        </mxCell>
        <mxCell id="TeC2zb-W1rzmLHfq34ra-28" style="rounded=0;orthogonalLoop=1;jettySize=auto;html=1;exitX=0.5;exitY=1;exitDx=0;exitDy=0;strokeColor=#007A7A;entryX=0;entryY=0.5;entryDx=0;entryDy=0;" edge="1" parent="1" source="TeC2zb-W1rzmLHfq34ra-26" target="TeC2zb-W1rzmLHfq34ra-27">
          <mxGeometry relative="1" as="geometry">
            <mxPoint x="143.25" y="476.27" as="targetPoint" />
          </mxGeometry>
        </mxCell>
        <mxCell id="TeC2zb-W1rzmLHfq34ra-29" value="&lt;font face=&quot;Verdana&quot;&gt;type: &quot;LessThan&quot;&lt;br&gt;valueHostName: &quot;StartDate&quot;&lt;br&gt;secondValueHostName: &quot;EndDate&quot;&lt;/font&gt;" style="whiteSpace=wrap;html=1;rotation=0;fillColor=#fad7ac;strokeColor=#b46504;rounded=1;container=0;spacing=4;align=left;" vertex="1" parent="1">
          <mxGeometry x="84.63" y="472.15" width="297.37" height="62.5" as="geometry" />
        </mxCell>
      </root>
    </mxGraphModel>
  </diagram>
</mxfile>
